<?xml version="1.0" encoding="UTF-8" standalone="no"?>
<!DOCTYPE svg PUBLIC "-//W3C//DTD SVG 1.1//EN" "http://www.w3.org/Graphics/SVG/1.1/DTD/svg11.dtd">
<!-- Created with Vectornator (http://vectornator.io/) -->
<svg height="100%" stroke-miterlimit="10" style="fill-rule:nonzero;clip-rule:evenodd;stroke-linecap:round;stroke-linejoin:round;" version="1.1" viewBox="0 0 841.995 595.35" width="100%" xml:space="preserve" xmlns="http://www.w3.org/2000/svg" xmlns:vectornator="http://vectornator.io" xmlns:xlink="http://www.w3.org/1999/xlink">
<defs>
<filter color-interpolation-filters="sRGB" filterUnits="userSpaceOnUse" height="327.267" id="Filter" width="321.433" x="226.123" y="168.553">
<feDropShadow dx="-9.90268" dy="-1.39177" flood-color="#67c30c" flood-opacity="1" in="SourceGraphic" result="Shadow" stdDeviation="4"/>
</filter>
<filter color-interpolation-filters="sRGB" filterUnits="userSpaceOnUse" height="307.267" id="Filter_2" width="301.433" x="246.026" y="179.945">
<feDropShadow dx="-9.90268" dy="-1.39177" flood-color="#336302" flood-opacity="1" in="SourceGraphic" result="Shadow" stdDeviation="4"/>
</filter>
</defs>
<g id="Layer-1" vectornator:layerName="Layer 1">
<g filter="url(#Filter)" vectornator:layerName="Group 2" vectornator:shadowAngle="3.28122" vectornator:shadowColor="#67c30c" vectornator:shadowOffset="10" vectornator:shadowOpacity="1" vectornator:shadowRadius="8">
<g filter="url(#Filter_2)" vectornator:blendMode="luminosity" vectornator:layerName="Group 1" vectornator:shadowAngle="3.28122" vectornator:shadowColor="#336302" vectornator:shadowOffset="10" vectornator:shadowOpacity="1" vectornator:shadowRadius="8">
<path d="M265.929 198.67L283.729 198.67C286.084 198.67 288.245 198.931 290.212 199.453C292.179 199.975 293.868 200.714 295.279 201.67C296.69 202.625 297.784 203.77 298.562 205.103C299.34 206.437 299.729 207.903 299.729 209.503C299.729 210.725 299.606 211.814 299.362 212.77C299.118 213.725 298.684 214.609 298.062 215.42C297.44 216.231 296.612 216.998 295.579 217.72C294.545 218.442 293.24 219.181 291.662 219.937L291.662 220.07C293.24 220.314 294.662 220.737 295.929 221.337C297.195 221.937 298.279 222.698 299.179 223.62C300.079 224.542 300.773 225.62 301.262 226.853C301.751 228.087 301.995 229.437 301.995 230.903C301.995 232.57 301.634 234.131 300.912 235.587C300.19 237.042 299.156 238.309 297.812 239.387C296.468 240.464 294.845 241.314 292.945 241.937C291.045 242.559 288.918 242.87 286.562 242.87L265.929 242.87L265.929 198.67ZM273.362 218.57L282.829 218.57C284.318 218.57 285.64 218.359 286.795 217.937C287.951 217.514 288.929 216.931 289.729 216.187C290.529 215.442 291.134 214.553 291.545 213.52C291.956 212.487 292.162 211.37 292.162 210.17C292.162 208.881 291.918 207.709 291.429 206.653C290.94 205.598 290.179 204.692 289.145 203.937C288.112 203.181 286.801 202.603 285.212 202.203C283.623 201.803 281.718 201.603 279.495 201.603L273.362 201.603L273.362 218.57ZM273.362 239.637L281.395 239.637C283.551 239.637 285.423 239.431 287.012 239.02C288.601 238.609 289.912 238.031 290.945 237.287C291.979 236.542 292.745 235.648 293.245 234.603C293.745 233.559 293.995 232.414 293.995 231.17C293.995 229.77 293.773 228.47 293.329 227.27C292.884 226.07 292.156 225.031 291.145 224.153C290.134 223.275 288.812 222.581 287.179 222.07C285.545 221.559 283.54 221.303 281.162 221.303L273.362 221.303L273.362 239.637Z" fill="#080f01" fill-rule="nonzero" opacity="1" stroke="none"/>
<path d="M315.895 208.103L316.929 208.103L317.829 215.07C318.362 214.048 319.029 213.114 319.829 212.27C320.629 211.425 321.512 210.692 322.479 210.07C323.445 209.448 324.468 208.964 325.545 208.62C326.623 208.275 327.718 208.103 328.829 208.103C329.829 208.103 330.812 208.237 331.779 208.503C332.745 208.77 333.651 209.192 334.495 209.77L332.362 215.47C331.918 214.981 331.451 214.587 330.962 214.287C330.473 213.987 329.973 213.753 329.462 213.587C328.951 213.42 328.429 213.314 327.895 213.27C327.362 213.225 326.829 213.203 326.295 213.203C325.451 213.203 324.623 213.325 323.812 213.57C323.001 213.814 322.229 214.175 321.495 214.653C320.762 215.131 320.084 215.742 319.462 216.487C318.84 217.231 318.295 218.103 317.829 219.103L317.829 242.87L311.062 242.87L311.062 209.97L315.895 208.103Z" fill="#080f01" fill-rule="nonzero" opacity="1" stroke="none"/>
<path d="M356.295 243.603C353.673 243.603 351.262 243.148 349.062 242.237C346.862 241.325 344.962 240.087 343.362 238.52C341.762 236.953 340.512 235.12 339.612 233.02C338.712 230.92 338.262 228.67 338.262 226.27C338.262 223.759 338.712 221.398 339.612 219.187C340.512 216.975 341.762 215.048 343.362 213.403C344.962 211.759 346.862 210.464 349.062 209.52C351.262 208.575 353.673 208.103 356.295 208.103C358.895 208.103 361.29 208.537 363.479 209.403C365.668 210.27 367.562 211.459 369.162 212.97C370.762 214.481 372.012 216.253 372.912 218.287C373.812 220.32 374.262 222.503 374.262 224.837C374.262 227.414 373.812 229.842 372.912 232.12C372.012 234.398 370.762 236.387 369.162 238.087C367.562 239.787 365.668 241.131 363.479 242.12C361.29 243.109 358.895 243.603 356.295 243.603ZM357.595 241.103C358.929 241.103 360.151 240.759 361.262 240.07C362.373 239.381 363.329 238.453 364.129 237.287C364.929 236.12 365.551 234.77 365.995 233.237C366.44 231.703 366.662 230.081 366.662 228.37C366.662 225.903 366.451 223.592 366.029 221.437C365.606 219.281 364.918 217.403 363.962 215.803C363.006 214.203 361.762 212.942 360.229 212.02C358.695 211.098 356.829 210.637 354.629 210.637C353.495 210.637 352.395 210.964 351.329 211.62C350.262 212.275 349.323 213.17 348.512 214.303C347.701 215.437 347.051 216.764 346.562 218.287C346.073 219.809 345.829 221.425 345.829 223.137C345.829 225.625 346.09 227.959 346.612 230.137C347.134 232.314 347.901 234.214 348.912 235.837C349.923 237.459 351.156 238.742 352.612 239.687C354.068 240.631 355.729 241.103 357.595 241.103Z" fill="#080f01" fill-rule="nonzero" opacity="1" stroke="none"/>
<path d="M399.629 243.603C397.006 243.603 394.595 243.148 392.395 242.237C390.195 241.325 388.295 240.087 386.695 238.52C385.095 236.953 383.845 235.12 382.945 233.02C382.045 230.92 381.595 228.67 381.595 226.27C381.595 223.759 382.045 221.398 382.945 219.187C383.845 216.975 385.095 215.048 386.695 213.403C388.295 211.759 390.195 210.464 392.395 209.52C394.595 208.575 397.006 208.103 399.629 208.103C402.229 208.103 404.623 208.537 406.812 209.403C409.001 210.27 410.895 211.459 412.495 212.97C414.095 214.481 415.345 216.253 416.245 218.287C417.145 220.32 417.595 222.503 417.595 224.837C417.595 227.414 417.145 229.842 416.245 232.12C415.345 234.398 414.095 236.387 412.495 238.087C410.895 239.787 409.001 241.131 406.812 242.12C404.623 243.109 402.229 243.603 399.629 243.603ZM400.929 241.103C402.262 241.103 403.484 240.759 404.595 240.07C405.706 239.381 406.662 238.453 407.462 237.287C408.262 236.12 408.884 234.77 409.329 233.237C409.773 231.703 409.995 230.081 409.995 228.37C409.995 225.903 409.784 223.592 409.362 221.437C408.94 219.281 408.251 217.403 407.295 215.803C406.34 214.203 405.095 212.942 403.562 212.02C402.029 211.098 400.162 210.637 397.962 210.637C396.829 210.637 395.729 210.964 394.662 211.62C393.595 212.275 392.656 213.17 391.845 214.303C391.034 215.437 390.384 216.764 389.895 218.287C389.406 219.809 389.162 221.425 389.162 223.137C389.162 225.625 389.423 227.959 389.945 230.137C390.468 232.314 391.234 234.214 392.245 235.837C393.256 237.459 394.49 238.742 395.945 239.687C397.401 240.631 399.062 241.103 400.929 241.103Z" fill="#080f01" fill-rule="nonzero" opacity="1" stroke="none"/>
<path d="M433.362 222.503L450.495 208.737L454.895 208.737L439.595 221.17L458.495 242.87L449.562 242.87L433.362 224.203L433.362 242.87L426.562 242.87L426.562 193.27L431.429 191.337L433.362 191.337L433.362 222.503Z" fill="#080f01" fill-rule="nonzero" opacity="1" stroke="none"/>
<path d="M470.429 242.87L463.629 242.87L463.629 193.27L468.462 191.337L470.429 191.337L470.429 242.87Z" fill="#080f01" fill-rule="nonzero" opacity="1" stroke="none"/>
<path d="M481.195 250.937C481.462 251.048 481.756 251.192 482.079 251.37C482.401 251.548 482.756 251.72 483.145 251.887C483.534 252.053 483.962 252.192 484.429 252.303C484.895 252.414 485.418 252.47 485.995 252.47C486.706 252.47 487.373 252.27 487.995 251.87C488.618 251.47 489.184 250.97 489.695 250.37C490.206 249.77 490.662 249.114 491.062 248.403C491.462 247.692 491.795 247.025 492.062 246.403L494.362 241.27L476.929 208.737L484.629 208.737L497.762 233.403L508.529 208.737L512.162 208.737L494.729 248.87C493.995 250.537 493.156 251.981 492.212 253.203C491.268 254.425 490.262 255.437 489.195 256.237C488.129 257.037 487.029 257.631 485.895 258.02C484.762 258.409 483.662 258.603 482.595 258.603C481.795 258.603 481.018 258.481 480.262 258.237C479.506 257.992 478.873 257.67 478.362 257.27L481.195 250.937Z" fill="#080f01" fill-rule="nonzero" opacity="1" stroke="none"/>
<path d="M523.662 208.103L525.595 208.103L525.595 215.003C527.662 212.692 529.806 210.964 532.029 209.82C534.251 208.675 536.506 208.103 538.795 208.103C539.995 208.103 541.112 208.37 542.145 208.903C543.179 209.437 544.084 210.17 544.862 211.103C545.64 212.037 546.251 213.131 546.695 214.387C547.14 215.642 547.362 216.981 547.362 218.403L547.362 242.87L540.595 242.87L540.595 219.57C540.595 218.437 540.462 217.442 540.195 216.587C539.929 215.731 539.551 215.014 539.062 214.437C538.573 213.859 538.001 213.42 537.345 213.12C536.69 212.82 535.962 212.67 535.162 212.67C534.451 212.67 533.695 212.792 532.895 213.037C532.095 213.281 531.279 213.62 530.445 214.053C529.612 214.487 528.784 215.003 527.962 215.603C527.14 216.203 526.351 216.87 525.595 217.603L525.595 242.87L518.795 242.87L518.795 210.003L523.662 208.103Z" fill="#080f01" fill-rule="nonzero" opacity="1" stroke="none"/>
<path d="M360.162 331.67L360.162 352.87L352.729 352.87L352.729 308.67L360.162 308.67L360.162 328.803L382.362 328.803L382.362 308.67L389.795 308.67L389.795 352.87L382.362 352.87L382.362 331.67L360.162 331.67Z" fill="#080f01" fill-rule="nonzero" opacity="1" stroke="none"/>
<path d="M402.362 320.037L407.129 318.103L409.095 318.103L409.095 352.87L402.362 352.87L402.362 320.037ZM401.829 305.67C401.829 305.137 401.929 304.637 402.129 304.17C402.329 303.703 402.606 303.292 402.962 302.937C403.318 302.581 403.729 302.303 404.195 302.103C404.662 301.903 405.162 301.803 405.695 301.803C406.229 301.803 406.729 301.903 407.195 302.103C407.662 302.303 408.073 302.581 408.429 302.937C408.784 303.292 409.062 303.703 409.262 304.17C409.462 304.637 409.562 305.137 409.562 305.67C409.562 306.203 409.462 306.703 409.262 307.17C409.062 307.637 408.784 308.048 408.429 308.403C408.073 308.759 407.662 309.037 407.195 309.237C406.729 309.437 406.229 309.537 405.695 309.537C405.162 309.537 404.662 309.437 404.195 309.237C403.729 309.037 403.318 308.759 402.962 308.403C402.606 308.048 402.329 307.637 402.129 307.17C401.929 306.703 401.829 306.203 401.829 305.67Z" fill="#080f01" fill-rule="nonzero" opacity="1" stroke="none"/>
<path d="M453.695 320.537L453.695 323.403L447.229 323.403C447.873 324.314 448.401 325.353 448.812 326.52C449.223 327.687 449.429 328.837 449.429 329.97C449.429 331.748 449.04 333.359 448.262 334.803C447.484 336.248 446.401 337.492 445.012 338.537C443.623 339.581 441.962 340.387 440.029 340.953C438.095 341.52 435.962 341.803 433.629 341.803C432.762 341.803 431.879 341.737 430.979 341.603C430.079 341.47 429.295 341.292 428.629 341.07C427.984 341.603 427.44 342.22 426.995 342.92C426.551 343.62 426.329 344.325 426.329 345.037C426.329 345.725 426.701 346.27 427.445 346.67C428.19 347.07 429.251 347.303 430.629 347.37L443.229 347.937C445.251 348.025 446.934 348.264 448.279 348.653C449.623 349.042 450.695 349.564 451.495 350.22C452.295 350.875 452.862 351.648 453.195 352.537C453.529 353.425 453.695 354.425 453.695 355.537C453.695 357.514 453.234 359.309 452.312 360.92C451.39 362.531 450.062 363.903 448.329 365.037C446.595 366.17 444.479 367.048 441.979 367.67C439.479 368.292 436.651 368.603 433.495 368.603C430.673 368.603 428.206 368.437 426.095 368.103C423.984 367.77 422.229 367.298 420.829 366.687C419.429 366.075 418.384 365.342 417.695 364.487C417.006 363.631 416.662 362.67 416.662 361.603C416.662 360.67 416.895 359.775 417.362 358.92C417.829 358.064 418.429 357.242 419.162 356.453C419.895 355.664 420.706 354.903 421.595 354.17C422.484 353.437 423.362 352.737 424.229 352.07C423.606 351.87 423.023 351.631 422.479 351.353C421.934 351.075 421.462 350.759 421.062 350.403C420.662 350.048 420.351 349.664 420.129 349.253C419.906 348.842 419.795 348.403 419.795 347.937C419.795 347.248 419.979 346.531 420.345 345.787C420.712 345.042 421.212 344.331 421.845 343.653C422.479 342.975 423.212 342.353 424.045 341.787C424.879 341.22 425.773 340.77 426.729 340.437C424.44 339.459 422.645 338.098 421.345 336.353C420.045 334.609 419.395 332.603 419.395 330.337C419.395 328.67 419.779 327.092 420.545 325.603C421.312 324.114 422.373 322.814 423.729 321.703C425.084 320.592 426.668 319.714 428.479 319.07C430.29 318.425 432.251 318.103 434.362 318.103C435.384 318.103 436.39 318.17 437.379 318.303C438.368 318.437 439.29 318.614 440.145 318.837C441.001 319.059 441.756 319.314 442.412 319.603C443.068 319.892 443.584 320.203 443.962 320.537L453.695 320.537ZM426.329 352.603C425.818 352.981 425.373 353.403 424.995 353.87C424.618 354.337 424.295 354.825 424.029 355.337C423.762 355.848 423.562 356.364 423.429 356.887C423.295 357.409 423.229 357.903 423.229 358.37C423.229 359.125 423.495 359.848 424.029 360.537C424.562 361.225 425.362 361.837 426.429 362.37C427.495 362.903 428.834 363.325 430.445 363.637C432.056 363.948 433.929 364.103 436.062 364.103C438.329 364.103 440.356 363.925 442.145 363.57C443.934 363.214 445.456 362.742 446.712 362.153C447.968 361.564 448.923 360.909 449.579 360.187C450.234 359.464 450.562 358.737 450.562 358.003C450.562 357.248 450.368 356.592 449.979 356.037C449.59 355.481 449.029 355.025 448.295 354.67C447.562 354.314 446.673 354.048 445.629 353.87C444.584 353.692 443.406 353.603 442.095 353.603C440.451 353.603 438.795 353.564 437.129 353.487C435.462 353.409 433.906 353.32 432.462 353.22C431.018 353.12 429.751 353.009 428.662 352.887C427.573 352.764 426.795 352.67 426.329 352.603ZM434.762 340.037C435.718 340.037 436.64 339.82 437.529 339.387C438.418 338.953 439.201 338.359 439.879 337.603C440.556 336.848 441.095 335.964 441.495 334.953C441.895 333.942 442.095 332.848 442.095 331.67C442.095 330.003 441.868 328.453 441.412 327.02C440.956 325.587 440.34 324.342 439.562 323.287C438.784 322.231 437.873 321.403 436.829 320.803C435.784 320.203 434.684 319.903 433.529 319.903C432.395 319.903 431.412 320.137 430.579 320.603C429.745 321.07 429.062 321.72 428.529 322.553C427.995 323.387 427.601 324.364 427.345 325.487C427.09 326.609 426.962 327.814 426.962 329.103C426.962 330.637 427.151 332.07 427.529 333.403C427.906 334.737 428.44 335.898 429.129 336.887C429.818 337.875 430.64 338.648 431.595 339.203C432.551 339.759 433.606 340.037 434.762 340.037Z" fill="#080f01" fill-rule="nonzero" opacity="1" stroke="none"/>
<path d="M466.795 325.003C468.818 322.692 470.951 320.964 473.195 319.82C475.44 318.675 477.706 318.103 479.995 318.103C481.195 318.103 482.312 318.37 483.345 318.903C484.379 319.437 485.284 320.17 486.062 321.103C486.84 322.037 487.451 323.131 487.895 324.387C488.34 325.642 488.562 326.981 488.562 328.403L488.562 352.87L481.795 352.87L481.795 329.57C481.795 327.303 481.284 325.587 480.262 324.42C479.24 323.253 477.929 322.67 476.329 322.67C475.618 322.67 474.862 322.792 474.062 323.037C473.262 323.281 472.451 323.62 471.629 324.053C470.806 324.487 469.984 325.003 469.162 325.603C468.34 326.203 467.551 326.87 466.795 327.603L466.795 352.87L459.995 352.87L459.995 303.27L464.862 301.337L466.795 301.337L466.795 325.003Z" fill="#080f01" fill-rule="nonzero" opacity="1" stroke="none"/>
<path d="M304.145 461.103C305.234 461.103 306.312 460.953 307.379 460.653C308.445 460.353 309.401 459.909 310.245 459.32C311.09 458.731 311.768 458.009 312.279 457.153C312.79 456.298 313.045 455.303 313.045 454.17C313.045 452.814 312.695 451.609 311.995 450.553C311.295 449.498 310.379 448.531 309.245 447.653C308.112 446.775 306.818 445.948 305.362 445.17C303.906 444.392 302.423 443.614 300.912 442.837C299.401 442.059 297.918 441.242 296.462 440.387C295.006 439.531 293.712 438.575 292.579 437.52C291.445 436.464 290.529 435.287 289.829 433.987C289.129 432.687 288.779 431.192 288.779 429.503C288.779 427.814 289.095 426.248 289.729 424.803C290.362 423.359 291.29 422.109 292.512 421.053C293.734 419.998 295.24 419.17 297.029 418.57C298.818 417.97 300.868 417.67 303.179 417.67C305.268 417.67 307.134 417.892 308.779 418.337C310.423 418.781 311.868 419.437 313.112 420.303C314.356 421.17 315.412 422.237 316.279 423.503C317.145 424.77 317.845 426.237 318.379 427.903L314.579 429.637C314.134 428.281 313.568 427.042 312.879 425.92C312.19 424.798 311.368 423.837 310.412 423.037C309.456 422.237 308.351 421.62 307.095 421.187C305.84 420.753 304.423 420.537 302.845 420.537C301.445 420.537 300.223 420.731 299.179 421.12C298.134 421.509 297.262 422.02 296.562 422.653C295.862 423.287 295.34 423.998 294.995 424.787C294.651 425.575 294.479 426.381 294.479 427.203C294.479 428.359 294.834 429.42 295.545 430.387C296.256 431.353 297.201 432.264 298.379 433.12C299.556 433.975 300.895 434.803 302.395 435.603C303.895 436.403 305.423 437.214 306.979 438.037C308.534 438.859 310.062 439.714 311.562 440.603C313.062 441.492 314.401 442.464 315.579 443.52C316.756 444.575 317.701 445.731 318.412 446.987C319.123 448.242 319.479 449.648 319.479 451.203C319.479 452.959 319.145 454.609 318.479 456.153C317.812 457.698 316.812 459.042 315.479 460.187C314.145 461.331 312.49 462.237 310.512 462.903C308.534 463.57 306.234 463.903 303.612 463.903C301.479 463.903 299.579 463.67 297.912 463.203C296.245 462.737 294.773 462.059 293.495 461.17C292.218 460.281 291.123 459.198 290.212 457.92C289.301 456.642 288.556 455.181 287.979 453.537L291.945 451.903C292.412 453.348 293.04 454.637 293.829 455.77C294.618 456.903 295.534 457.864 296.579 458.653C297.623 459.442 298.784 460.048 300.062 460.47C301.34 460.892 302.701 461.103 304.145 461.103Z" fill="#080f01" fill-rule="nonzero" opacity="1" stroke="none"/>
<path d="M345.545 463.603C342.923 463.603 340.512 463.148 338.312 462.237C336.112 461.325 334.212 460.087 332.612 458.52C331.012 456.953 329.762 455.12 328.862 453.02C327.962 450.92 327.512 448.67 327.512 446.27C327.512 443.759 327.962 441.398 328.862 439.187C329.762 436.975 331.012 435.048 332.612 433.403C334.212 431.759 336.112 430.464 338.312 429.52C340.512 428.575 342.923 428.103 345.545 428.103C348.145 428.103 350.54 428.537 352.729 429.403C354.918 430.27 356.812 431.459 358.412 432.97C360.012 434.481 361.262 436.253 362.162 438.287C363.062 440.32 363.512 442.503 363.512 444.837C363.512 447.414 363.062 449.842 362.162 452.12C361.262 454.398 360.012 456.387 358.412 458.087C356.812 459.787 354.918 461.131 352.729 462.12C350.54 463.109 348.145 463.603 345.545 463.603ZM346.845 461.103C348.179 461.103 349.401 460.759 350.512 460.07C351.623 459.381 352.579 458.453 353.379 457.287C354.179 456.12 354.801 454.77 355.245 453.237C355.69 451.703 355.912 450.081 355.912 448.37C355.912 445.903 355.701 443.592 355.279 441.437C354.856 439.281 354.168 437.403 353.212 435.803C352.256 434.203 351.012 432.942 349.479 432.02C347.945 431.098 346.079 430.637 343.879 430.637C342.745 430.637 341.645 430.964 340.579 431.62C339.512 432.275 338.573 433.17 337.762 434.303C336.951 435.437 336.301 436.764 335.812 438.287C335.323 439.809 335.079 441.425 335.079 443.137C335.079 445.625 335.34 447.959 335.862 450.137C336.384 452.314 337.151 454.214 338.162 455.837C339.173 457.459 340.406 458.742 341.862 459.687C343.318 460.631 344.979 461.103 346.845 461.103Z" fill="#080f01" fill-rule="nonzero" opacity="1" stroke="none"/>
<path d="M395.545 438.337C395.301 437.448 394.968 436.548 394.545 435.637C394.123 434.725 393.584 433.898 392.929 433.153C392.273 432.409 391.501 431.803 390.612 431.337C389.723 430.87 388.679 430.637 387.479 430.637C385.945 430.637 384.568 430.948 383.345 431.57C382.123 432.192 381.09 433.037 380.245 434.103C379.401 435.17 378.756 436.414 378.312 437.837C377.868 439.259 377.645 440.77 377.645 442.37C377.645 444.548 377.929 446.609 378.495 448.553C379.062 450.498 379.862 452.203 380.895 453.67C381.929 455.137 383.173 456.298 384.629 457.153C386.084 458.009 387.712 458.437 389.512 458.437C391.09 458.437 392.462 458.187 393.629 457.687C394.795 457.187 395.806 456.514 396.662 455.67C397.518 454.825 398.256 453.842 398.879 452.72C399.501 451.598 400.056 450.414 400.545 449.17L402.579 450.003C402.001 452.137 401.223 454.048 400.245 455.737C399.268 457.425 398.118 458.853 396.795 460.02C395.473 461.187 393.984 462.075 392.329 462.687C390.673 463.298 388.879 463.603 386.945 463.603C384.701 463.603 382.601 463.164 380.645 462.287C378.69 461.409 376.99 460.203 375.545 458.67C374.101 457.137 372.956 455.348 372.112 453.303C371.268 451.259 370.845 449.07 370.845 446.737C370.845 445.025 371.056 443.375 371.479 441.787C371.901 440.198 372.495 438.714 373.262 437.337C374.029 435.959 374.951 434.703 376.029 433.57C377.106 432.437 378.301 431.464 379.612 430.653C380.923 429.842 382.329 429.214 383.829 428.77C385.329 428.325 386.89 428.103 388.512 428.103C389.868 428.103 391.168 428.259 392.412 428.57C393.656 428.881 394.801 429.32 395.845 429.887C396.89 430.453 397.812 431.153 398.612 431.987C399.412 432.82 400.034 433.748 400.479 434.77L395.545 438.337Z" fill="#080f01" fill-rule="nonzero" opacity="1" stroke="none"/>
<path d="M412.712 430.037L417.479 428.103L419.445 428.103L419.445 462.87L412.712 462.87L412.712 430.037ZM412.179 415.67C412.179 415.137 412.279 414.637 412.479 414.17C412.679 413.703 412.956 413.292 413.312 412.937C413.668 412.581 414.079 412.303 414.545 412.103C415.012 411.903 415.512 411.803 416.045 411.803C416.579 411.803 417.079 411.903 417.545 412.103C418.012 412.303 418.423 412.581 418.779 412.937C419.134 413.292 419.412 413.703 419.612 414.17C419.812 414.637 419.912 415.137 419.912 415.67C419.912 416.203 419.812 416.703 419.612 417.17C419.412 417.637 419.134 418.048 418.779 418.403C418.423 418.759 418.012 419.037 417.545 419.237C417.079 419.437 416.579 419.537 416.045 419.537C415.512 419.537 415.012 419.437 414.545 419.237C414.079 419.037 413.668 418.759 413.312 418.403C412.956 418.048 412.679 417.637 412.479 417.17C412.279 416.703 412.179 416.203 412.179 415.67Z" fill="#080f01" fill-rule="nonzero" opacity="1" stroke="none"/>
<path d="M446.345 463.603C444.034 463.603 441.862 463.17 439.829 462.303C437.795 461.437 436.023 460.259 434.512 458.77C433.001 457.281 431.806 455.531 430.929 453.52C430.051 451.509 429.612 449.37 429.612 447.103C429.612 444.37 430.012 441.842 430.812 439.52C431.612 437.198 432.745 435.192 434.212 433.503C435.679 431.814 437.44 430.492 439.495 429.537C441.551 428.581 443.845 428.103 446.379 428.103C448.601 428.103 450.645 428.498 452.512 429.287C454.379 430.075 455.984 431.131 457.329 432.453C458.673 433.775 459.718 435.303 460.462 437.037C461.206 438.77 461.579 440.581 461.579 442.47L436.145 442.47C436.145 444.759 436.44 446.881 437.029 448.837C437.618 450.792 438.445 452.481 439.512 453.903C440.579 455.325 441.845 456.437 443.312 457.237C444.779 458.037 446.39 458.437 448.145 458.437C449.612 458.437 451.023 458.198 452.379 457.72C453.734 457.242 454.962 456.614 456.062 455.837C457.162 455.059 458.101 454.17 458.879 453.17C459.656 452.17 460.201 451.137 460.512 450.07L462.479 450.937C461.99 452.692 461.201 454.337 460.112 455.87C459.023 457.403 457.751 458.742 456.295 459.887C454.84 461.031 453.256 461.937 451.545 462.603C449.834 463.27 448.101 463.603 446.345 463.603ZM453.079 439.737C453.079 438.448 452.851 437.248 452.395 436.137C451.94 435.025 451.312 434.064 450.512 433.253C449.712 432.442 448.779 431.803 447.712 431.337C446.645 430.87 445.501 430.637 444.279 430.637C443.256 430.637 442.279 430.864 441.345 431.32C440.412 431.775 439.579 432.409 438.845 433.22C438.112 434.031 437.506 434.992 437.029 436.103C436.551 437.214 436.268 438.414 436.179 439.703L453.079 439.737Z" fill="#080f01" fill-rule="nonzero" opacity="1" stroke="none"/>
<path d="M479.279 417.137L481.212 417.137L481.212 428.737L488.812 428.737L488.812 431.637L481.212 431.637L481.212 455.67C481.212 456.181 481.306 456.659 481.495 457.103C481.684 457.548 481.94 457.937 482.262 458.27C482.584 458.603 482.968 458.864 483.412 459.053C483.856 459.242 484.345 459.337 484.879 459.337C485.634 459.337 486.323 459.148 486.945 458.77C487.568 458.392 488.112 457.925 488.579 457.37L490.279 458.503C489.345 460.081 488.134 461.325 486.645 462.237C485.156 463.148 483.312 463.603 481.112 463.603C479.979 463.603 478.99 463.409 478.145 463.02C477.301 462.631 476.606 462.087 476.062 461.387C475.518 460.687 475.112 459.853 474.845 458.887C474.579 457.92 474.445 456.848 474.445 455.67L474.445 431.637L468.512 431.637L468.512 430.37L474.445 428.737L474.445 419.037L479.279 417.137Z" fill="#080f01" fill-rule="nonzero" opacity="1" stroke="none"/>
<path d="M498.012 470.937C498.279 471.048 498.573 471.192 498.895 471.37C499.218 471.548 499.573 471.72 499.962 471.887C500.351 472.053 500.779 472.192 501.245 472.303C501.712 472.414 502.234 472.47 502.812 472.47C503.523 472.47 504.19 472.27 504.812 471.87C505.434 471.47 506.001 470.97 506.512 470.37C507.023 469.77 507.479 469.114 507.879 468.403C508.279 467.692 508.612 467.025 508.879 466.403L511.179 461.27L493.745 428.737L501.445 428.737L514.579 453.403L525.345 428.737L528.979 428.737L511.545 468.87C510.812 470.537 509.973 471.981 509.029 473.203C508.084 474.425 507.079 475.437 506.012 476.237C504.945 477.037 503.845 477.631 502.712 478.02C501.579 478.409 500.479 478.603 499.412 478.603C498.612 478.603 497.834 478.481 497.079 478.237C496.323 477.992 495.69 477.67 495.179 477.27L498.012 470.937Z" fill="#080f01" fill-rule="nonzero" opacity="1" stroke="none"/>
</g>
</g>
</g>
</svg>
